name Walk2.mot
datacolumns 19
datarows 22
range 1.73000000 1.83500000
endheader

                time	   L_ground_force_vx	   L_ground_force_vy	   L_ground_force_vz	   L_ground_force_px	   L_ground_force_py	   L_ground_force_pz	   R_ground_force_vx	   R_ground_force_vy	   R_ground_force_vz	   R_ground_force_px	   R_ground_force_py	   R_ground_force_pz	   L_ground_torque_x	   L_ground_torque_y	   L_ground_torque_z	   R_ground_torque_x	   R_ground_torque_y	   R_ground_torque_z	
          1.73000000	         -0.04911359	          0.53241380	         -0.05853612	          0.00056000	          0.00000000	          0.00032591	         25.47582371	        696.78968903	        -18.71696501	         -0.12726498	          0.00000000	          0.32824427	          0.00000000	         -0.00028612	          0.00000000	          0.00000000	          3.68727732	          0.00000000	
          1.73500000	         -0.06600740	          0.59459500	         -0.06045411	          0.00056719	          0.00000000	          0.00032715	         27.16637535	        706.36392218	        -19.41112233	         -0.12425722	          0.00000000	          0.32837540	          0.00000000	         -0.00039760	          0.00000000	          0.00000000	          3.55759832	          0.00000000	
          1.74000000	         -0.08421069	          0.61822884	         -0.05598929	          0.00050844	          0.00000000	          0.00028873	         29.02764700	        715.49578149	        -20.16901388	         -0.12127472	          0.00000000	          0.32851137	          0.00000000	         -0.00052241	          0.00000000	          0.00000000	          3.40493654	          0.00000000	
          1.74500000	         -0.10221100	          0.57883800	         -0.04212190	          0.00035412	          0.00000000	          0.00019321	         31.07452027	        724.21497109	        -20.95198329	         -0.11833865	          0.00000000	          0.32864457	          0.00000000	         -0.00065260	          0.00000000	          0.00000000	          3.23357627	          0.00000000	
          1.75000000	         -0.11767484	          0.44602574	         -0.01530256	          0.00006981	          0.00000000	          0.00002043	         33.32897656	        732.56514899	        -21.71452461	         -0.11547373	          0.00000000	          0.32876688	          0.00000000	         -0.00077513	          0.00000000	          0.00000000	          3.04824760	          0.00000000	
          1.75500000	         -0.12727621	          0.18391349	          0.02840622	         -0.00038215	          0.00000000	         -0.00025151	         35.81761370	        740.59734886	        -22.40845791	         -0.11270773	          0.00000000	          0.32886946	          0.00000000	         -0.00087062	          0.00000000	          0.00000000	          2.85400496	          0.00000000	
          1.76000000	         -0.12655167	         -0.24750072	          0.09306151	         -0.00103979	          0.00000000	         -0.00064456	         38.56819670	        748.36224468	        -22.98778797	         -0.11006813	          0.00000000	          0.32894586	          0.00000000	         -0.00091214	          0.00000000	          0.00000000	          2.65578042	          0.00000000	
          1.76500000	         -0.10981446	         -0.88971550	          0.18240656	         -0.00193708	          0.00000000	         -0.00117798	         41.60483294	        755.90075683	        -23.41234114	         -0.10758045	          0.00000000	          0.32899179	          0.00000000	         -0.00086440	          0.00000000	          0.00000000	          2.45850142	          0.00000000	
          1.77000000	         -0.07017158	         -1.78144530	          0.29923357	         -0.00309738	          0.00000000	         -0.00186450	         44.94385065	        763.23870528	        -23.64985328	         -0.10526596	          0.00000000	          0.32900218	          0.00000000	         -0.00068334	          0.00000000	          0.00000000	          2.26745869	          0.00000000	
          1.77500000	          0.00030084	         -2.95228842	          0.44450734	         -0.00452475	          0.00000000	         -0.00270510	         48.59139644	        770.38101749	        -23.67706301	         -0.10313811	          0.00000000	          0.32897198	          0.00000000	         -0.00031674	          0.00000000	          0.00000000	          2.08752268	          0.00000000	
          1.78000000	          0.11015700	         -4.41397736	          0.61622408	         -0.00619253	          0.00000000	         -0.00368231	         52.54258817	        777.30986020	        -23.47859197	         -0.10120294	          0.00000000	          0.32889748	          0.00000000	          0.00029401	          0.00000000	          0.00000000	          1.92266836	          0.00000000	
          1.78500000	          0.26787901	         -6.14893809	          0.80799793	         -0.00802951	          0.00000000	         -0.00475201	         56.78280668	        783.98659657	        -23.04358350	         -0.09946013	          0.00000000	          0.32877715	          0.00000000	          0.00121012	          0.00000000	          0.00000000	          1.77605065	          0.00000000	
          1.79000000	          0.48079052	         -8.09606391	          1.00739736	         -0.00990381	          0.00000000	         -0.00583402	         61.28705956	        790.35446564	        -22.36877902	         -0.09790485	          0.00000000	          0.32861186	          0.00000000	          0.00248946	          0.00000000	          0.00000000	          1.64988845	          0.00000000	
          1.79500000	          0.75350543	        -10.13390040	          1.19409639	         -0.01160513	          0.00000000	         -0.00680179	         66.01965045	        796.34173444	        -21.46903050	         -0.09652868	          0.00000000	          0.32840523	          0.00000000	          0.00417741	          0.00000000	          0.00000000	          1.54508915	          0.00000000	
          1.80000000	          1.08584315	        -12.06186678	          1.33796546	         -0.01282689	          0.00000000	         -0.00747206	         70.94531181	        801.86294428	        -20.38187424	         -0.09532004	          0.00000000	          0.32816263	          0.00000000	          0.00629437	          0.00000000	          0.00000000	          1.46062297	          0.00000000	
          1.80500000	          1.47016890	        -13.58073157	          1.39730326	         -0.01315017	          0.00000000	         -0.00759575	         76.04047632	        806.81525725	        -19.16173551	         -0.09426603	          0.00000000	          0.32789050	          0.00000000	          0.00881924	          0.00000000	          0.00000000	          1.39320599	          0.00000000	
          1.81000000	          1.88816556	        -14.27433296	          1.31750669	         -0.01203249	          0.00000000	         -0.00685186	         81.28897837	        811.07543147	        -17.87206142	         -0.09335273	          0.00000000	          0.32759759	          0.00000000	          0.01166882	          0.00000000	          0.00000000	          1.33826720	          0.00000000	
          1.81500000	          2.30711725	        -13.59549481	          1.03058797	         -0.00880567	          0.00000000	         -0.00484682	         86.67251404	        814.49950374	        -16.58094731	         -0.09256404	          0.00000000	          0.32729541	          0.00000000	          0.01467330	          0.00000000	          0.00000000	          1.28987322	          0.00000000	
          1.82000000	          2.67588967	        -10.86022210	          0.45607230	         -0.00268785	          0.00000000	         -0.00112246	         92.16553096	        816.92405485	        -15.35590448	         -0.09188292	          0.00000000	          0.32699725	          0.00000000	          0.01754879	          0.00000000	          0.00000000	          1.24098117	          0.00000000	
          1.82500000	          2.92093356	         -5.25552299	         -0.49606229	          0.00718365	          0.00000000	          0.00482366	         97.73575055	        818.16639510	        -14.25528991	         -0.09129209	          0.00000000	          0.32671674	          0.00000000	          0.01986852	          0.00000000	          0.00000000	          1.18492357	          0.00000000	
          1.83000000	          2.94281690	          4.13248465	         -1.91962326	          0.02169112	          0.00000000	          0.01350103	        103.34753038	        818.02338063	        -13.31994142	         -0.09077506	          0.00000000	          0.32646594	          0.00000000	          0.02103551	          0.00000000	          0.00000000	          1.11610345	          0.00000000	
          1.83500000	          2.61400938	         18.26230188	         -3.90275188	          0.04163865	          0.00000000	          0.02536729	        108.96237355	        816.27380122	        -12.56717501	         -0.09031727	          0.00000000	          0.32625468	          0.00000000	          0.02026102	          0.00000000	          0.00000000	          1.03114817	          0.00000000	
